<svg width="1277" height="302" viewBox="0 0 1277 302" fill="none" xmlns="http://www.w3.org/2000/svg">
<path d="M684.903 254.487C684.903 262.492 683.063 268.932 679.383 273.806C675.703 278.648 670.765 281.068 664.567 281.068C657.95 281.068 652.834 278.728 649.219 274.048L648.783 280.1H640.552V205.73H649.509V233.474C653.124 228.987 658.111 226.744 664.47 226.744C670.829 226.744 675.816 229.148 679.431 233.958C683.079 238.767 684.903 245.352 684.903 253.712V254.487ZM675.945 253.47C675.945 247.37 674.767 242.657 672.411 239.332C670.055 236.007 666.665 234.345 662.243 234.345C656.336 234.345 652.091 237.089 649.509 242.576V265.236C652.253 270.723 656.53 273.467 662.34 273.467C666.633 273.467 669.974 271.804 672.362 268.48C674.751 265.155 675.945 260.152 675.945 253.47Z" fill="#6D9AB4"/>
<path d="M712.791 266.979L724.993 227.712H734.58L713.518 288.186C710.258 296.901 705.077 301.259 697.976 301.259L696.281 301.114L692.94 300.484V293.221L695.361 293.415C698.395 293.415 700.751 292.802 702.43 291.575C704.141 290.349 705.545 288.105 706.642 284.845L708.627 279.519L689.938 227.712H699.719L712.791 266.979Z" fill="#6D9AB4"/>
<path d="M767.601 280.1V209.604H788.42C794.65 209.604 800.17 210.992 804.979 213.767C809.821 216.543 813.565 220.481 816.212 225.581C818.859 230.681 820.182 236.524 820.182 243.109V246.643C820.182 253.325 818.843 259.2 816.164 264.267C813.517 269.335 809.724 273.241 804.786 275.985C799.879 278.728 794.247 280.1 787.888 280.1H767.601ZM779.85 219.481V270.32H787.839C794.263 270.32 799.185 268.318 802.607 264.316C806.061 260.281 807.82 254.503 807.884 246.982V243.06C807.884 235.41 806.222 229.568 802.897 225.533C799.573 221.498 794.747 219.481 788.42 219.481H779.85Z" fill="#6D9AB4"/>
<path d="M829.043 253.422C829.043 248.289 830.06 243.674 832.093 239.574C834.127 235.443 836.984 232.279 840.663 230.084C844.343 227.857 848.572 226.744 853.349 226.744C860.418 226.744 866.147 229.019 870.537 233.57C874.959 238.122 877.348 244.158 877.703 251.679L877.751 254.439C877.751 259.603 876.751 264.219 874.75 268.286C872.781 272.353 869.94 275.5 866.228 277.728C862.548 279.955 858.287 281.068 853.446 281.068C846.054 281.068 840.131 278.615 835.676 273.709C831.254 268.77 829.043 262.202 829.043 254.003V253.422ZM840.809 254.439C840.809 259.829 841.922 264.058 844.149 267.124C846.377 270.158 849.475 271.675 853.446 271.675C857.416 271.675 860.499 270.126 862.693 267.027C864.921 263.929 866.034 259.393 866.034 253.422C866.034 248.128 864.888 243.932 862.597 240.833C860.337 237.734 857.255 236.185 853.349 236.185C849.508 236.185 846.457 237.718 844.198 240.785C841.938 243.819 840.809 248.37 840.809 254.439Z" fill="#6D9AB4"/>
<path d="M909.223 271.675C912.16 271.675 914.598 270.82 916.534 269.109C918.471 267.398 919.504 265.284 919.633 262.766H930.721C930.592 266.027 929.575 269.077 927.67 271.917C925.766 274.726 923.184 276.953 919.924 278.599C916.663 280.245 913.145 281.068 909.368 281.068C902.041 281.068 896.231 278.696 891.938 273.951C887.645 269.206 885.498 262.653 885.498 254.293V253.083C885.498 245.11 887.629 238.735 891.89 233.958C896.15 229.148 901.96 226.744 909.32 226.744C915.55 226.744 920.617 228.567 924.523 232.215C928.461 235.83 930.527 240.591 930.721 246.498H919.633C919.504 243.496 918.471 241.027 916.534 239.09C914.63 237.153 912.193 236.185 909.223 236.185C905.414 236.185 902.477 237.573 900.411 240.349C898.345 243.093 897.296 247.273 897.264 252.889V254.778C897.264 260.459 898.281 264.703 900.314 267.511C902.38 270.287 905.35 271.675 909.223 271.675Z" fill="#6D9AB4"/>
<path d="M985.481 254.439C985.481 262.541 983.642 269.012 979.962 273.854C976.282 278.664 971.343 281.068 965.146 281.068C959.4 281.068 954.801 279.18 951.347 275.404V300.242H939.581V227.712H950.427L950.911 233.038C954.365 228.842 959.061 226.744 965.001 226.744C971.392 226.744 976.395 229.132 980.01 233.909C983.658 238.654 985.481 245.255 985.481 253.712V254.439ZM973.764 253.422C973.764 248.193 972.715 244.045 970.617 240.978C968.551 237.912 965.582 236.379 961.708 236.379C956.899 236.379 953.445 238.364 951.347 242.334V265.575C953.477 269.642 956.963 271.675 961.805 271.675C965.549 271.675 968.471 270.174 970.569 267.173C972.699 264.138 973.764 259.555 973.764 253.422Z" fill="#6D9AB4"/>
<path d="M1008 280.1H996.23V205.73H1008V280.1Z" fill="#6D9AB4"/>
<path d="M1052.15 280.1C1051.64 279.099 1051.18 277.469 1050.8 275.21C1047.05 279.116 1042.47 281.068 1037.05 281.068C1031.79 281.068 1027.49 279.568 1024.17 276.566C1020.84 273.564 1019.18 269.852 1019.18 265.429C1019.18 259.845 1021.25 255.568 1025.38 252.599C1029.54 249.597 1035.48 248.096 1043.2 248.096H1050.41V244.658C1050.41 241.947 1049.65 239.784 1048.13 238.17C1046.62 236.524 1044.31 235.701 1041.21 235.701C1038.53 235.701 1036.34 236.379 1034.63 237.734C1032.91 239.058 1032.06 240.752 1032.06 242.818H1020.29C1020.29 239.945 1021.25 237.266 1023.15 234.781C1025.06 232.263 1027.64 230.294 1030.9 228.874C1034.19 227.454 1037.85 226.744 1041.89 226.744C1048.02 226.744 1052.91 228.293 1056.56 231.392C1060.21 234.458 1062.08 238.783 1062.18 244.368V267.996C1062.18 272.708 1062.84 276.469 1064.16 279.277V280.1H1052.15ZM1039.23 271.627C1041.55 271.627 1043.73 271.062 1045.76 269.932C1047.83 268.803 1049.38 267.285 1050.41 265.381V255.504H1044.07C1039.71 255.504 1036.43 256.262 1034.24 257.779C1032.04 259.297 1030.95 261.443 1030.95 264.219C1030.95 266.479 1031.69 268.286 1033.17 269.642C1034.69 270.965 1036.71 271.627 1039.23 271.627Z" fill="#6D9AB4"/>
<path d="M1085.42 227.712L1085.76 233.764C1089.63 229.084 1094.71 226.744 1101.01 226.744C1111.92 226.744 1117.47 232.989 1117.66 245.481V280.1H1105.9V246.159C1105.9 242.834 1105.17 240.381 1103.72 238.8C1102.3 237.186 1099.96 236.379 1096.7 236.379C1091.95 236.379 1088.42 238.525 1086.09 242.818V280.1H1074.33V227.712H1085.42Z" fill="#6D9AB4"/>
<path d="M1140.61 227.712L1140.95 233.764C1144.82 229.084 1149.91 226.744 1156.2 226.744C1167.11 226.744 1172.67 232.989 1172.86 245.481V280.1H1161.09V246.159C1161.09 242.834 1160.37 240.381 1158.91 238.8C1157.49 237.186 1155.15 236.379 1151.89 236.379C1147.15 236.379 1143.61 238.525 1141.29 242.818V280.1H1129.52V227.712H1140.61Z" fill="#6D9AB4"/>
<path d="M1207.96 281.068C1200.51 281.068 1194.45 278.728 1189.81 274.048C1185.19 269.335 1182.88 263.073 1182.88 255.262V253.809C1182.88 248.58 1183.88 243.916 1185.88 239.816C1187.92 235.685 1190.76 232.473 1194.4 230.181C1198.05 227.889 1202.12 226.744 1206.61 226.744C1213.74 226.744 1219.24 229.019 1223.12 233.57C1227.02 238.122 1228.98 244.561 1228.98 252.889V257.634H1194.74C1195.1 261.96 1196.54 265.381 1199.05 267.899C1201.6 270.417 1204.8 271.675 1208.64 271.675C1214.03 271.675 1218.42 269.497 1221.81 265.139L1228.15 271.191C1226.05 274.322 1223.25 276.759 1219.73 278.502C1216.24 280.213 1212.32 281.068 1207.96 281.068ZM1206.56 236.185C1203.33 236.185 1200.72 237.315 1198.71 239.574C1196.75 241.834 1195.49 244.981 1194.94 249.016H1217.36V248.144C1217.1 244.206 1216.05 241.237 1214.21 239.235C1212.37 237.202 1209.82 236.185 1206.56 236.185Z" fill="#6D9AB4"/>
<path d="M1265.58 238.461C1264.03 238.202 1262.43 238.073 1260.79 238.073C1255.4 238.073 1251.76 240.139 1249.89 244.271V280.1H1238.13V227.712H1249.36L1249.65 233.57C1252.49 229.019 1256.43 226.744 1261.46 226.744C1263.14 226.744 1264.53 226.969 1265.63 227.421L1265.58 238.461Z" fill="#6D9AB4"/>
<path d="M1198 0C1244.88 0 1276.36 36.7548 1276.36 79.4495C1276.36 122.145 1244.44 159.337 1197.57 159.337C1150.69 159.337 1119.22 122.588 1119.22 79.8889C1119.22 37.1949 1151.13 0 1198 0ZM1036.69 2.64553C1071.46 2.64553 1094.35 21.1257 1094.35 51.7204C1094.35 85.1703 1066.62 102.334 1033.83 102.334H996.42V156.696H979.034V2.64553H1036.69ZM607.988 2.64312V18.7067H556.264V156.695H538.658V18.7067H486.942V2.64312H607.988ZM751.914 2.64553V18.485H657.942V71.0865H742.008V86.9364H657.942V140.854H753.015V156.695H640.553V2.64553H751.914ZM805.609 2.64553L861.733 86.7139L917.855 2.64553H935.46V156.695H918.068V31.9159L861.949 114.441H861.072L804.953 32.1335V156.695H788.006V2.64553H805.609ZM1255.83 72.3972H1195.32V87.4143H1255.83V72.3972ZM1035.37 18.7099H996.42V86.4923H1034.49C1060.02 86.4923 1076.74 72.847 1076.74 52.3846C1076.74 30.1522 1060.24 18.7099 1035.37 18.7099Z" fill="#6D9AB4"/>
<path d="M393.434 0C440.303 0 471.779 36.7548 471.779 79.4495C471.779 122.145 439.873 159.337 392.995 159.337C346.116 159.337 314.646 122.588 314.646 79.8889C314.646 37.1949 346.557 0 393.434 0ZM169.395 2.63991V91.1111C169.395 124.346 187.007 143.056 216.49 143.056C244.886 143.056 262.932 125.885 262.932 92.217V2.63991H280.317V90.8902C280.317 135.79 254.569 159.119 216.055 159.119C177.979 159.119 152.011 135.79 152.011 92.217V2.63991H169.395ZM121.863 2.64312V18.7067H70.1398V156.695H52.5334V18.7067H0.817017V2.64312H121.863ZM401.556 20.7009H386.54V81.2108H401.556V20.7009Z" fill="#59CC79"/>
</svg>
